<?xml version="1.0" encoding="utf-8"?>
<!-- Generator: Adobe Illustrator 19.2.1, SVG Export Plug-In . SVG Version: 6.00 Build 0)  -->
<svg version="1.1" id="Layer_1" xmlns="http://www.w3.org/2000/svg" xmlns:xlink="http://www.w3.org/1999/xlink" x="0px" y="0px"
	 viewBox="0 0 429 117.3" style="enable-background:new 0 0 429 117.3;" xml:space="preserve">
<style type="text/css">
	.st0{fill:#0891D1;}
	.st1{fill:none;stroke:#FFFFFF;stroke-width:6;stroke-miterlimit:10;}
	.st2{fill:#FFFFFF;}
	.st3{fill:none;}
</style>
<g>
	<circle class="st0" cx="58.7" cy="58.7" r="58.7"/>
	<g>
		<circle class="st1" cx="58.7" cy="58.5" r="43.7"/>
		<g>
			<ellipse transform="matrix(0.3269 -0.9451 0.9451 0.3269 28.5204 118.7267)" class="st2" cx="97.6" cy="39.3" rx="9" ry="9"/>
			<line class="st1" x1="97.6" y1="39.4" x2="67.5" y2="64.4"/>
		</g>
		<g>
			
				<ellipse transform="matrix(8.909635e-02 -0.996 0.996 8.909635e-02 -12.5798 169.8052)" class="st2" cx="86.5" cy="91.8" rx="9" ry="9"/>
			<line class="st1" x1="86.5" y1="91.8" x2="67.5" y2="64.4"/>
		</g>
		<ellipse transform="matrix(0.8395 -0.5434 0.5434 0.8395 -24.1559 47.0241)" class="st2" cx="67.5" cy="64.4" rx="9" ry="9"/>
		<g>
			<ellipse transform="matrix(0.512 -0.859 0.859 0.512 -51.3162 47.9529)" class="st2" cx="16.5" cy="69.1" rx="9" ry="9"/>
			<line class="st1" x1="16.6" y1="69.1" x2="67.5" y2="64.4"/>
		</g>
	</g>
</g>
<g>
	<rect x="134.4" y="35.8" class="st3" width="297.5" height="89"/>
	<path class="st0" d="M164.6,49.7c-0.2-0.2-0.6-0.5-1.3-0.9c-0.7-0.4-1.6-0.9-2.7-1.4c-1.1-0.5-2.3-0.9-3.6-1.3
		c-1.3-0.4-2.6-0.5-3.9-0.5c-1.7,0-3,0.3-3.9,0.9c-0.9,0.6-1.4,1.5-1.4,2.7c0,0.7,0.2,1.3,0.6,1.8c0.4,0.5,1,0.9,1.7,1.3
		c0.8,0.4,1.7,0.7,2.8,1.1c1.1,0.3,2.4,0.7,3.9,1.1c2.1,0.6,3.9,1.2,5.6,1.9c1.7,0.7,3.1,1.5,4.3,2.5c1.2,1,2.1,2.2,2.7,3.6
		c0.6,1.4,0.9,3.1,0.9,5.1c0,2.4-0.5,4.5-1.4,6.2c-0.9,1.7-2.1,3-3.6,4.1c-1.5,1-3.2,1.8-5.2,2.3c-2,0.5-4,0.7-6.1,0.7
		c-1.6,0-3.2-0.1-4.8-0.4c-1.6-0.2-3.3-0.6-4.8-1.1c-1.6-0.5-3.1-1-4.6-1.7c-1.5-0.7-2.9-1.4-4.1-2.3l4.4-8.7
		c0.2,0.2,0.8,0.6,1.6,1.2c0.9,0.6,2,1.1,3.3,1.7c1.3,0.6,2.8,1.1,4.4,1.5c1.6,0.4,3.3,0.7,4.9,0.7c3.5,0,5.3-1.1,5.3-3.2
		c0-0.8-0.3-1.5-0.8-2c-0.5-0.5-1.3-1-2.2-1.4c-0.9-0.4-2-0.8-3.3-1.2c-1.3-0.4-2.6-0.8-4.1-1.2c-2-0.6-3.7-1.3-5.2-2
		c-1.5-0.7-2.7-1.5-3.7-2.5c-1-0.9-1.7-2-2.2-3.2c-0.5-1.2-0.7-2.6-0.7-4.3c0-2.3,0.4-4.3,1.3-6c0.9-1.7,2-3.2,3.5-4.4
		c1.5-1.2,3.2-2.1,5.1-2.7c1.9-0.6,4-0.9,6.1-0.9c1.5,0,3,0.1,4.5,0.4c1.5,0.3,2.9,0.7,4.2,1.1c1.3,0.4,2.6,1,3.8,1.5
		c1.2,0.6,2.2,1.1,3.2,1.7L164.6,49.7z"/>
	<path class="st0" d="M174,85.2c0.9,0.3,1.7,0.5,2.5,0.6c0.8,0.1,1.4,0.2,2,0.2c1.1,0,1.9-0.4,2.6-1.3c0.7-0.8,1.2-2.3,1.7-4.4
		l-12.1-32h10l7.5,23.7l6.4-23.7h9.1l-12.3,37.2c-0.9,2.7-2.4,4.8-4.5,6.4c-2.1,1.6-4.6,2.4-7.4,2.5c-0.9,0-1.8-0.1-2.7-0.2
		c-0.9-0.1-1.8-0.4-2.7-0.7V85.2z"/>
	<path class="st0" d="M238.3,80.4h-9.8v-18c0-2.1-0.4-3.6-1.2-4.6c-0.8-1-1.8-1.4-3.1-1.4c-0.7,0-1.4,0.1-2.1,0.4
		c-0.7,0.3-1.4,0.7-2,1.2c-0.6,0.5-1.2,1.1-1.7,1.8c-0.5,0.7-0.9,1.4-1.2,2.3v18.4h-9.8v-32h8.8v5.4c1.2-1.9,2.8-3.4,5-4.4
		c2.2-1,4.6-1.6,7.4-1.6c2.1,0,3.8,0.4,5,1.1c1.3,0.8,2.3,1.7,3,2.9s1.1,2.5,1.4,3.9c0.2,1.4,0.3,2.8,0.3,4.1V80.4z"/>
	<path class="st0" d="M242.8,64.3c0-2.2,0.4-4.3,1.2-6.3c0.8-2,1.9-3.8,3.4-5.3c1.5-1.5,3.3-2.7,5.4-3.6c2.1-0.9,4.6-1.3,7.3-1.3
		c3.7,0,6.8,0.8,9.3,2.3c2.5,1.6,4.4,3.6,5.7,6.1l-9.5,2.9c-1.3-2-3.1-3-5.6-3c-2,0-3.7,0.8-5.1,2.3c-1.4,1.5-2,3.5-2,6
		c0,1.3,0.2,2.4,0.5,3.4c0.4,1,0.9,1.9,1.5,2.7c0.7,0.7,1.4,1.3,2.3,1.7c0.9,0.4,1.8,0.6,2.8,0.6c1.2,0,2.3-0.3,3.4-0.9
		c1-0.6,1.8-1.4,2.3-2.3l9.5,2.9c-1.2,2.5-3.1,4.5-5.6,6.1c-2.6,1.6-5.7,2.4-9.4,2.4c-2.7,0-5.1-0.5-7.2-1.4s-3.9-2.1-5.4-3.7
		c-1.5-1.5-2.6-3.3-3.4-5.3C243.2,68.6,242.8,66.5,242.8,64.3z"/>
	<path class="st0" d="M300.2,78.7c-1.3,0.6-2.9,1.1-4.6,1.6s-3.5,0.7-5.2,0.7c-1.2,0-2.4-0.2-3.4-0.5c-1.1-0.3-2-0.8-2.8-1.5
		s-1.5-1.6-1.9-2.7c-0.5-1.1-0.7-2.4-0.7-4V55.7h-4.1v-7.4h4.1V38.2h9.8v10.2h6.5v7.4h-6.5v13.4c0,1.1,0.3,1.8,0.8,2.3
		s1.2,0.7,2,0.7c0.7,0,1.4-0.1,2.2-0.4s1.5-0.5,2.1-0.8L300.2,78.7z"/>
	<path class="st0" d="M334.8,80.4H325v-18c0-2.1-0.4-3.6-1.2-4.6c-0.8-1-2-1.5-3.4-1.5c-0.6,0-1.2,0.1-1.9,0.4
		c-0.7,0.3-1.3,0.7-2,1.2c-0.6,0.5-1.2,1.1-1.7,1.8c-0.5,0.7-0.9,1.5-1.2,2.3v18.4h-9.8V35.8h9.8v17.9c1.2-1.9,2.7-3.4,4.7-4.4
		c1.9-1,4.1-1.6,6.4-1.6c2.2,0,3.9,0.4,5.2,1.1c1.3,0.8,2.3,1.7,3.1,2.9c0.7,1.2,1.2,2.5,1.4,3.9c0.2,1.4,0.4,2.9,0.4,4.2V80.4z"/>
	<path class="st0" d="M341.1,44.7v-8.8h9.8v8.8H341.1z M341.1,80.4v-32h9.8v32H341.1z"/>
	<path class="st0" d="M388.4,80.4h-9.8v-18c0-2.1-0.4-3.6-1.2-4.6c-0.8-1-1.8-1.4-3.1-1.4c-0.7,0-1.4,0.1-2.1,0.4
		c-0.7,0.3-1.4,0.7-2,1.2c-0.6,0.5-1.2,1.1-1.7,1.8c-0.5,0.7-0.9,1.4-1.2,2.3v18.4h-9.8v-32h8.8v5.4c1.2-1.9,2.8-3.4,5-4.4
		c2.2-1,4.6-1.6,7.4-1.6c2.1,0,3.8,0.4,5,1.1c1.3,0.8,2.3,1.7,3,2.9s1.1,2.5,1.4,3.9c0.2,1.4,0.3,2.8,0.3,4.1V80.4z"/>
	<path class="st0" d="M407.2,80.5c-2.1,0-4-0.4-5.8-1.3c-1.7-0.9-3.2-2-4.5-3.5c-1.2-1.5-2.2-3.2-2.9-5.1c-0.7-2-1-4-1-6.3
		c0-2.4,0.4-4.5,1.1-6.6c0.7-2,1.7-3.8,3.1-5.2c1.3-1.5,2.9-2.7,4.7-3.5c1.8-0.9,3.8-1.3,6-1.3c2.4,0,4.5,0.5,6.3,1.6
		c1.8,1,3.3,2.5,4.4,4.3v-5.2h8.5v29.8c0,2.4-0.5,4.6-1.4,6.6c-0.9,2-2.2,3.6-3.8,5c-1.6,1.4-3.6,2.4-5.9,3.1
		c-2.3,0.7-4.8,1.1-7.5,1.1c-3.5,0-6.4-0.5-8.8-1.6c-2.4-1.1-4.6-2.7-6.4-4.8l5.2-5.3c1.2,1.3,2.7,2.4,4.4,3.2
		c1.8,0.8,3.7,1.2,5.6,1.2c1.2,0,2.3-0.2,3.4-0.5c1.1-0.3,2-0.8,2.8-1.5s1.5-1.5,1.9-2.6c0.5-1.1,0.7-2.4,0.7-3.9v-3.1
		c-1,1.8-2.4,3.1-4.2,4.1C411.3,80,409.3,80.5,407.2,80.5z M410.6,72.7c1.5,0,2.8-0.4,4-1.3c1.2-0.8,2.1-1.9,2.8-3.2v-6.7
		c-0.7-1.7-1.6-3.1-3-4.1c-1.3-1-2.8-1.5-4.3-1.5c-1.1,0-2,0.2-2.9,0.7c-0.9,0.5-1.6,1.1-2.3,1.9c-0.6,0.8-1.1,1.7-1.5,2.7
		c-0.3,1-0.5,2.1-0.5,3.2c0,1.2,0.2,2.3,0.6,3.3c0.4,1,0.9,1.9,1.6,2.6c0.7,0.7,1.5,1.3,2.4,1.7C408.5,72.5,409.5,72.7,410.6,72.7z"
		/>
</g>
</svg>
