<?xml version="1.0" encoding="utf-8"?>
<!-- Generator: Adobe Illustrator 19.2.1, SVG Export Plug-In . SVG Version: 6.00 Build 0)  -->
<svg version="1.1" id="Layer_1" xmlns="http://www.w3.org/2000/svg" xmlns:xlink="http://www.w3.org/1999/xlink" x="0px" y="0px"
	 viewBox="0 0 241.9 176.8" style="enable-background:new 0 0 241.9 176.8;" xml:space="preserve">
<style type="text/css">
	.st0{fill:#0891D1;}
	.st1{fill:none;stroke:#FFFFFF;stroke-width:6;stroke-miterlimit:10;}
	.st2{fill:#FFFFFF;}
	.st3{fill:none;}
</style>
<g>
	<circle class="st0" cx="121" cy="58.7" r="58.7"/>
	<g>
		<circle class="st1" cx="121" cy="58.5" r="43.7"/>
		<g>
			<ellipse transform="matrix(0.3269 -0.9451 0.9451 0.3269 70.4527 177.6004)" class="st2" cx="159.9" cy="39.3" rx="9" ry="9"/>
			<line class="st1" x1="159.9" y1="39.4" x2="129.8" y2="64.4"/>
		</g>
		<g>
			
				<ellipse transform="matrix(8.909641e-02 -0.996 0.996 8.909641e-02 44.1657 231.8533)" class="st2" cx="148.8" cy="91.8" rx="9" ry="9"/>
			<line class="st1" x1="148.8" y1="91.8" x2="129.8" y2="64.4"/>
		</g>
		<ellipse transform="matrix(0.8395 -0.5434 0.5434 0.8395 -14.1556 80.876)" class="st2" cx="129.8" cy="64.4" rx="9" ry="9"/>
		<g>
			<ellipse transform="matrix(0.512 -0.859 0.859 0.512 -20.9172 101.4633)" class="st2" cx="78.8" cy="69.1" rx="9" ry="9"/>
			<line class="st1" x1="78.9" y1="69.1" x2="129.8" y2="64.4"/>
		</g>
	</g>
</g>
<g>
	<rect x="-27.8" y="127.6" class="st3" width="297.5" height="89"/>
	<path class="st0" d="M24.4,139c-0.1-0.1-0.5-0.4-1.1-0.8c-0.6-0.4-1.4-0.8-2.2-1.2c-0.9-0.4-1.9-0.8-3-1c-1.1-0.3-2.1-0.5-3.2-0.5
		c-1.4,0-2.5,0.2-3.2,0.8s-1.1,1.2-1.1,2.2c0,0.6,0.2,1.1,0.5,1.5c0.3,0.4,0.8,0.8,1.4,1.1c0.6,0.3,1.4,0.6,2.3,0.9
		c0.9,0.3,2,0.6,3.2,0.9c1.7,0.5,3.2,1,4.6,1.5c1.4,0.5,2.5,1.2,3.5,2c1,0.8,1.7,1.8,2.2,3c0.5,1.2,0.8,2.6,0.8,4.2
		c0,2-0.4,3.7-1.1,5.1c-0.8,1.4-1.7,2.5-3,3.3c-1.2,0.9-2.7,1.5-4.3,1.9c-1.6,0.4-3.3,0.6-5,0.6c-1.3,0-2.6-0.1-4-0.3
		c-1.4-0.2-2.7-0.5-4-0.9c-1.3-0.4-2.6-0.8-3.8-1.4c-1.2-0.5-2.4-1.1-3.4-1.8l3.6-7.2c0.2,0.2,0.6,0.5,1.3,1
		c0.7,0.5,1.6,0.9,2.7,1.4c1.1,0.5,2.3,0.9,3.6,1.2c1.3,0.4,2.7,0.5,4,0.5c2.9,0,4.3-0.9,4.3-2.7c0-0.7-0.2-1.2-0.6-1.6
		c-0.4-0.4-1-0.8-1.8-1.2c-0.8-0.4-1.7-0.7-2.7-1c-1-0.3-2.2-0.6-3.4-1c-1.6-0.5-3-1-4.2-1.6c-1.2-0.6-2.2-1.3-3-2s-1.4-1.7-1.8-2.7
		S2,141.2,2,139.9c0-1.9,0.3-3.5,1-5c0.7-1.4,1.6-2.6,2.8-3.6c1.2-1,2.6-1.7,4.2-2.2s3.3-0.8,5-0.8c1.3,0,2.5,0.1,3.7,0.3
		c1.2,0.2,2.3,0.5,3.4,0.9c1.1,0.4,2.1,0.8,3.1,1.2c1,0.5,1.8,0.9,2.6,1.4L24.4,139z"/>
	<path class="st0" d="M32.1,168.1c0.7,0.2,1.4,0.4,2,0.5c0.6,0.1,1.2,0.1,1.6,0.1c0.9,0,1.6-0.3,2.1-1c0.5-0.7,1-1.9,1.4-3.6
		l-10-26.2h8.2l6.2,19.4l5.2-19.4h7.4l-10,30.5c-0.7,2.2-2,4-3.7,5.3c-1.8,1.3-3.8,2-6.1,2c-0.7,0-1.5-0.1-2.2-0.2
		c-0.7-0.1-1.5-0.3-2.2-0.6V168.1z"/>
	<path class="st0" d="M84.8,164.1h-8v-14.8c0-1.7-0.3-3-1-3.8c-0.7-0.8-1.5-1.2-2.6-1.2c-0.6,0-1.1,0.1-1.7,0.4
		c-0.6,0.2-1.1,0.6-1.7,1c-0.5,0.4-1,0.9-1.4,1.5c-0.4,0.6-0.8,1.2-1,1.9v15h-8v-26.2h7.2v4.4c1-1.6,2.3-2.8,4.1-3.6
		c1.8-0.9,3.8-1.3,6.1-1.3c1.7,0,3.1,0.3,4.1,0.9c1.1,0.6,1.9,1.4,2.4,2.4c0.6,1,0.9,2.1,1.1,3.2c0.2,1.2,0.3,2.3,0.3,3.4V164.1z"/>
	<path class="st0" d="M88.5,151c0-1.8,0.3-3.5,1-5.2c0.6-1.6,1.5-3.1,2.8-4.3c1.2-1.2,2.7-2.2,4.4-3c1.8-0.7,3.7-1.1,6-1.1
		c3,0,5.6,0.6,7.7,1.9c2.1,1.3,3.6,3,4.6,5l-7.8,2.3c-1-1.7-2.5-2.5-4.5-2.5c-1.7,0-3.1,0.6-4.2,1.9c-1.1,1.2-1.7,2.9-1.7,4.9
		c0,1,0.1,2,0.4,2.8c0.3,0.9,0.7,1.6,1.2,2.2c0.5,0.6,1.2,1.1,1.9,1.4c0.7,0.3,1.5,0.5,2.3,0.5c1,0,1.9-0.2,2.8-0.7
		c0.8-0.5,1.5-1.1,1.8-1.9l7.8,2.4c-1,2-2.5,3.7-4.6,5c-2.1,1.3-4.7,2-7.7,2c-2.2,0-4.2-0.4-5.9-1.1s-3.2-1.8-4.5-3
		s-2.1-2.7-2.8-4.3C88.8,154.5,88.5,152.8,88.5,151z"/>
	<path class="st0" d="M135.5,162.7c-1.1,0.5-2.4,0.9-3.8,1.3c-1.4,0.4-2.8,0.6-4.3,0.6c-1,0-1.9-0.1-2.8-0.4
		c-0.9-0.2-1.7-0.7-2.3-1.2c-0.7-0.5-1.2-1.3-1.6-2.2c-0.4-0.9-0.6-2-0.6-3.2v-13.7h-3.3v-6h3.3v-8.3h8v8.3h5.4v6h-5.4v11
		c0,0.9,0.2,1.5,0.7,1.9c0.4,0.4,1,0.6,1.7,0.6c0.6,0,1.2-0.1,1.8-0.3c0.6-0.2,1.2-0.4,1.7-0.7L135.5,162.7z"/>
	<path class="st0" d="M163.9,164.1h-8v-14.8c0-1.7-0.3-3-1-3.8c-0.7-0.8-1.6-1.2-2.8-1.2c-0.5,0-1,0.1-1.5,0.3
		c-0.5,0.2-1.1,0.5-1.6,1c-0.5,0.4-1,0.9-1.4,1.5c-0.4,0.6-0.8,1.2-1,1.9v15h-8v-36.5h8v14.7c1-1.6,2.2-2.8,3.8-3.6
		c1.6-0.9,3.3-1.3,5.3-1.3c1.8,0,3.2,0.3,4.3,0.9c1.1,0.6,1.9,1.4,2.5,2.4c0.6,0.9,1,2,1.2,3.2c0.2,1.2,0.3,2.3,0.3,3.5V164.1z"/>
	<path class="st0" d="M169.1,134.9v-7.2h8v7.2H169.1z M169.1,164.1v-26.2h8v26.2H169.1z"/>
	<path class="st0" d="M207.8,164.1h-8v-14.8c0-1.7-0.3-3-1-3.8c-0.7-0.8-1.5-1.2-2.6-1.2c-0.6,0-1.1,0.1-1.7,0.4
		c-0.6,0.2-1.1,0.6-1.7,1c-0.5,0.4-1,0.9-1.4,1.5c-0.4,0.6-0.8,1.2-1,1.9v15h-8v-26.2h7.2v4.4c1-1.6,2.3-2.8,4.1-3.6
		c1.8-0.9,3.8-1.3,6.1-1.3c1.7,0,3.1,0.3,4.1,0.9c1.1,0.6,1.9,1.4,2.4,2.4c0.6,1,0.9,2.1,1.1,3.2c0.2,1.2,0.3,2.3,0.3,3.4V164.1z"/>
	<path class="st0" d="M223.2,164.2c-1.7,0-3.3-0.3-4.7-1s-2.6-1.6-3.6-2.8c-1-1.2-1.8-2.6-2.4-4.2c-0.6-1.6-0.9-3.3-0.9-5.2
		c0-1.9,0.3-3.7,0.9-5.4c0.6-1.6,1.4-3.1,2.5-4.3c1.1-1.2,2.3-2.2,3.8-2.9s3.2-1,5-1c2,0,3.7,0.4,5.2,1.3c1.5,0.8,2.7,2,3.6,3.5
		v-4.3h7v24.5c0,2-0.4,3.8-1.1,5.4c-0.8,1.6-1.8,3-3.1,4.1c-1.3,1.1-2.9,2-4.8,2.6c-1.9,0.6-3.9,0.9-6.2,0.9c-2.8,0-5.2-0.5-7.2-1.4
		c-2-0.9-3.8-2.2-5.2-3.9l4.2-4.4c1,1.1,2.2,2,3.6,2.6c1.5,0.7,3,1,4.6,1c1,0,1.9-0.1,2.8-0.4c0.9-0.3,1.6-0.7,2.3-1.2
		c0.7-0.6,1.2-1.3,1.6-2.2c0.4-0.9,0.6-1.9,0.6-3.2v-2.5c-0.8,1.5-2,2.6-3.5,3.3C226.6,163.8,225,164.2,223.2,164.2z M226,157.9
		c1.2,0,2.3-0.3,3.3-1c1-0.7,1.7-1.6,2.3-2.6v-5.5c-0.5-1.4-1.3-2.5-2.5-3.3c-1.1-0.8-2.3-1.2-3.5-1.2c-0.9,0-1.7,0.2-2.4,0.6
		c-0.7,0.4-1.3,0.9-1.8,1.5c-0.5,0.7-0.9,1.4-1.2,2.2c-0.3,0.9-0.4,1.7-0.4,2.6c0,1,0.2,1.9,0.5,2.7c0.3,0.8,0.8,1.5,1.3,2.1
		c0.6,0.6,1.2,1.1,2,1.4C224.3,157.7,225.1,157.9,226,157.9z"/>
</g>
</svg>
