<?xml version="1.0" encoding="utf-8"?>
<!-- Generator: Adobe Illustrator 19.2.1, SVG Export Plug-In . SVG Version: 6.00 Build 0)  -->
<svg version="1.1" id="Layer_1" xmlns="http://www.w3.org/2000/svg" xmlns:xlink="http://www.w3.org/1999/xlink" x="0px" y="0px"
	 viewBox="0 0 117.3 117.3" style="enable-background:new 0 0 117.3 117.3;" xml:space="preserve">
<style type="text/css">
	.st0{fill:#0891D1;}
	.st1{fill:none;stroke:#FFFFFF;stroke-width:6;stroke-miterlimit:10;}
	.st2{fill:#FFFFFF;}
	.st3{fill:none;}
</style>
<g>
	<circle class="st0" cx="58.7" cy="58.7" r="58.7"/>
	<g>
		<circle class="st1" cx="58.7" cy="58.5" r="43.7"/>
		<g>
			<ellipse transform="matrix(0.3269 -0.9451 0.9451 0.3269 28.5204 118.7267)" class="st2" cx="97.6" cy="39.3" rx="9" ry="9"/>
			<line class="st1" x1="97.6" y1="39.4" x2="67.5" y2="64.4"/>
		</g>
		<g>
			
				<ellipse transform="matrix(8.909635e-02 -0.996 0.996 8.909635e-02 -12.5798 169.8052)" class="st2" cx="86.5" cy="91.8" rx="9" ry="9"/>
			<line class="st1" x1="86.5" y1="91.8" x2="67.5" y2="64.4"/>
		</g>
		<ellipse transform="matrix(0.8395 -0.5434 0.5434 0.8395 -24.1559 47.0241)" class="st2" cx="67.5" cy="64.4" rx="9" ry="9"/>
		<g>
			<ellipse transform="matrix(0.512 -0.859 0.859 0.512 -51.3162 47.9529)" class="st2" cx="16.5" cy="69.1" rx="9" ry="9"/>
			<line class="st1" x1="16.6" y1="69.1" x2="67.5" y2="64.4"/>
		</g>
	</g>
</g>
</svg>
